<svg width="512" height="376" viewBox="0 0 512 376" fill="none" xmlns="http://www.w3.org/2000/svg">
<path fill-rule="evenodd" clip-rule="evenodd" d="M-7.62647 269.802C-23.5106 245.292 17.0444 213.421 28.5355 184.528C39.317 157.42 39.979 130.072 58.3405 103.943C103.397 39.8257 196.19 6.63908 255.277 1.23318C313.948 -4.13449 388.399 34.2808 437.518 65.9519C465.885 84.2449 497.759 103.023 506.268 132.104C536.131 234.177 428.312 228.884 381.275 278.672C355.881 305.549 381.144 352.431 345.467 370.526C310.697 388.162 275.379 352.049 236.75 351.974C203.873 351.91 166.693 381.032 138.787 370.122C109.857 358.812 127.275 316.251 103.219 299.77C74.1073 279.823 10.0949 297.147 -7.62647 269.802Z" fill="#111111"/>
</svg>
